<?xml version="1.0" encoding="UTF-8" standalone="no"?>
<!-- Created with Inkscape (http://www.inkscape.org/) -->

<svg
   xmlns:osb="http://www.openswatchbook.org/uri/2009/osb"
   xmlns:dc="http://purl.org/dc/elements/1.1/"
   xmlns:cc="http://creativecommons.org/ns#"
   xmlns:rdf="http://www.w3.org/1999/02/22-rdf-syntax-ns#"
   xmlns:svg="http://www.w3.org/2000/svg"
   xmlns="http://www.w3.org/2000/svg"
   xmlns:sodipodi="http://sodipodi.sourceforge.net/DTD/sodipodi-0.dtd"
   xmlns:inkscape="http://www.inkscape.org/namespaces/inkscape"
   width="210mm"
   height="297mm"
   viewBox="0 0 210 297"
   version="1.1"
   id="svg8"
   inkscape:version="0.92.3 (2405546, 2018-03-11)"
   sodipodi:docname="Posaterm 3000.svg">
  <defs
     id="defs2">
    <linearGradient
       id="linearGradient922"
       osb:paint="solid">
      <stop
         style="stop-color:#000000;stop-opacity:1;"
         offset="0"
         id="stop920" />
    </linearGradient>
  </defs>
  <sodipodi:namedview
     id="base"
     pagecolor="#ffffff"
     bordercolor="#666666"
     borderopacity="1.0"
     inkscape:pageopacity="0.0"
     inkscape:pageshadow="2"
     inkscape:zoom="0.7"
     inkscape:cx="441.17443"
     inkscape:cy="440.75553"
     inkscape:document-units="mm"
     inkscape:current-layer="layer3"
     showgrid="false"
     inkscape:window-width="1920"
     inkscape:window-height="1025"
     inkscape:window-x="0"
     inkscape:window-y="27"
     inkscape:window-maximized="1"
     showguides="true"
     inkscape:guide-bbox="true">
    <sodipodi:guide
       position="22.717909,239.4735"
       orientation="1,0"
       id="guide906"
       inkscape:locked="false" />
    <sodipodi:guide
       position="186.8214,215.95379"
       orientation="1,0"
       id="guide908"
       inkscape:locked="false" />
    <sodipodi:guide
       position="105.30419,300.41096"
       orientation="1,0"
       id="guide984"
       inkscape:locked="false" />
    <sodipodi:guide
       position="3.674956,6.2808339"
       orientation="0,1"
       id="guide1249"
       inkscape:locked="false" />
  </sodipodi:namedview>
  <metadata
     id="metadata5">
    <rdf:RDF>
      <cc:Work
         rdf:about="">
        <dc:format>image/svg+xml</dc:format>
        <dc:type
           rdf:resource="http://purl.org/dc/dcmitype/StillImage" />
        <dc:title></dc:title>
      </cc:Work>
    </rdf:RDF>
  </metadata>
  <g
     inkscape:groupmode="layer"
     id="layer2"
     inkscape:label="Títulos"
     style="display:inline">
    <text
       xml:space="preserve"
       style="font-style:normal;font-weight:normal;font-size:4.69128609px;line-height:125%;font-family:sans-serif;letter-spacing:0px;word-spacing:0px;fill:#000000;fill-opacity:1;stroke:none;stroke-width:0.20850159px;stroke-linecap:butt;stroke-linejoin:miter;stroke-opacity:1"
       x="7.9608102"
       y="26.234493"
       id="text929"><tspan
         sodipodi:role="line"
         id="tspan927"
         x="7.9608102"
         y="26.234493"
         style="font-style:normal;font-variant:normal;font-weight:normal;font-stretch:normal;font-size:20.01615334px;line-height:12.41835499px;font-family:'Blade Runner Movie Font';-inkscape-font-specification:'Blade Runner Movie Font';stroke-width:0.20850159px">Posaterm 3000</tspan></text>
    <text
       xml:space="preserve"
       style="font-style:normal;font-weight:normal;font-size:5.953125px;line-height:125%;font-family:sans-serif;letter-spacing:0px;word-spacing:0px;fill:#000000;fill-opacity:1;stroke:none;stroke-width:0.26458332px;stroke-linecap:butt;stroke-linejoin:miter;stroke-opacity:1"
       x="63.602116"
       y="87.369362"
       id="text859"><tspan
         sodipodi:role="line"
         id="tspan857"
         x="63.602116"
         y="87.369362"
         style="font-style:normal;font-variant:normal;font-weight:bold;font-stretch:normal;font-family:sans-serif;-inkscape-font-specification:'sans-serif Bold';stroke-width:0.26458332px">¿Qué es Posaterm 3000?</tspan></text>
    <text
       xml:space="preserve"
       style="font-style:normal;font-weight:normal;font-size:5.953125px;line-height:125%;font-family:sans-serif;letter-spacing:0px;word-spacing:0px;display:inline;fill:#000000;fill-opacity:1;stroke:none;stroke-width:0.26458332px;stroke-linecap:butt;stroke-linejoin:miter;stroke-opacity:1"
       x="76.524475"
       y="142.86794"
       id="text859-2"><tspan
         sodipodi:role="line"
         id="tspan857-9"
         x="76.524475"
         y="142.86794"
         style="font-style:normal;font-variant:normal;font-weight:bold;font-stretch:normal;font-family:sans-serif;-inkscape-font-specification:'sans-serif Bold';stroke-width:0.26458332px">¿Cómo funciona?</tspan></text>
    <g
       transform="matrix(0.12699827,0,0,0.12698405,-15.038219,268.59772)"
       id="g287"
       inkscape:export-filename="/mnt/hgfs/Bov/Documents/Work/2007/cc/identity/srr buttons/big/by-sa.png"
       inkscape:export-xdpi="300.23013"
       inkscape:export-ydpi="300.23013">
      <path
         inkscape:connector-curvature="0"
         id="path3817_2_"
         nodetypes="ccccccc"
         d="m 182.23532,75.39014 114.06396,0.20312 c 1.59375,0 3.01758,-0.23682 3.01758,3.18018 l -0.13965,37.56689 H 179.3569 V 78.63379 c 0,-1.68457 0.16309,-3.24365 2.87842,-3.24365 z"
         style="fill:#aab2ab" />
      <g
         id="g5908_2_"
         transform="matrix(0.872921,0,0,0.872921,50.12536,143.2144)">
        <path
           inkscape:connector-curvature="0"
           id="path5906_2_"
           cx="296.35416"
           ry="22.939548"
           cy="264.3577"
           type="arc"
           rx="22.939548"
           d="m 187.20944,-55.6792 c 0.006,8.68024 -7.02786,15.72095 -15.7081,15.72708 -8.68021,0.005 -15.72205,-7.02786 -15.72708,-15.70804 0,-0.0067 0,-0.01233 0,-0.01904 -0.005,-8.68134 7.02783,-15.72205 15.70807,-15.72711 8.68134,-0.0056 15.72208,7.02789 15.72711,15.70807 0,0.0056 0,0.01233 0,0.01904 z"
           style="fill:#ffffff" />
        <g
           id="g5706_2_"
           transform="translate(-289.6157,99.0653)">
          <path
             inkscape:connector-curvature="0"
             id="path5708_2_"
             d="m 473.88455,-167.54724 c 3.48541,3.48596 5.22839,7.75391 5.22839,12.80273 0,5.04938 -1.7128,9.27148 -5.13834,12.66736 -3.63531,3.5766 -7.93179,5.36432 -12.88947,5.36432 -4.89777,0 -9.11987,-1.77261 -12.6651,-5.31955 -3.54584,-3.54581 -5.31845,-7.78299 -5.31845,-12.71213 0,-4.92859 1.77261,-9.19598 5.31845,-12.80273 3.4552,-3.48651 7.67725,-5.22894 12.6651,-5.22894 5.04829,0 9.31401,1.74243 12.79942,5.22894 z m -23.11798,2.34485 c -2.94675,2.97638 -4.41956,6.46289 -4.41956,10.46234 0,3.99835 1.45828,7.4552 4.37424,10.37067 2.91653,2.9165 6.38849,4.37476 10.41705,4.37476 4.02853,0 7.53018,-1.47281 10.50656,-4.41901 2.8259,-2.73584 4.23941,-6.17706 4.23941,-10.32642 0,-4.11804 -1.43646,-7.61292 -4.30768,-10.48474 -2.87064,-2.87067 -6.34988,-4.30652 -10.43829,-4.30652 -4.08837,0 -7.54638,1.44318 -10.37173,4.32892 z m 7.75449,8.70312 c -0.45032,-0.98163 -1.12433,-1.47223 -2.02325,-1.47223 -1.58914,0 -2.38342,1.06952 -2.38342,3.2085 0,2.13959 0.79428,3.20911 2.38342,3.20911 1.04938,0 1.79895,-0.5213 2.24866,-1.56512 l 2.20276,1.17303 c -1.04993,1.86548 -2.62506,2.79901 -4.72549,2.79901 -1.6199,0 -2.91763,-0.4967 -3.89206,-1.48956 -0.97607,-0.99341 -1.46274,-2.36273 -1.46274,-4.10797 0,-1.71558 0.50229,-3.07709 1.50748,-4.08563 1.00519,-1.00793 2.25705,-1.51251 3.75781,-1.51251 2.22012,0 3.80984,0.87488 4.77081,2.62286 z m 10.36334,0 c -0.45087,-0.98163 -1.11148,-1.47223 -1.98239,-1.47223 -1.62106,0 -2.43213,1.06952 -2.43213,3.2085 0,2.13959 0.81107,3.20911 2.43213,3.20911 1.05103,0 1.78717,-0.5213 2.20724,-1.56512 l 2.25201,1.17303 c -1.04825,1.86548 -2.62119,2.79901 -4.71768,2.79901 -1.61771,0 -2.91263,-0.4967 -3.88647,-1.48956 -0.97217,-0.99341 -1.45938,-2.36273 -1.45938,-4.10797 0,-1.71558 0.49448,-3.07709 1.48288,-4.08563 0.98782,-1.00793 2.24527,-1.51251 3.77347,-1.51251 2.21619,0 3.80368,0.87488 4.76132,2.62286 z" />
        </g>
      </g>
      <path
         inkscape:connector-curvature="0"
         d="M 297.29639,74.91064 H 181.06688 c -1.24658,0 -2.26074,1.01465 -2.26074,2.26123 v 39.49561 c 0,0.28174 0.22852,0.51074 0.51025,0.51074 h 119.73 c 0.28174,0 0.51074,-0.229 0.51074,-0.51074 v -39.4956 c 0,-1.24659 -1.01416,-2.26124 -2.26074,-2.26124 z m -116.22951,1.02149 h 116.22951 c 0.68359,0 1.23926,0.55615 1.23926,1.23975 0,0 0,15.91943 0,27.41846 H 215.4619 c -3.04492,5.50537 -8.91113,9.24365 -15.64355,9.24365 -6.73535,0 -12.6001,-3.73486 -15.64355,-9.24365 h -4.34814 c 0,-11.49902 0,-27.41846 0,-27.41846 -2e-5,-0.6836 0.55663,-1.23975 1.24022,-1.23975 z"
         id="path294" />
      <g
         enable-background="new    "
         id="g296">
        <path
           inkscape:connector-curvature="0"
           d="m 265.60986,112.8833 c 0.0801,0.15576 0.1875,0.28174 0.32129,0.37842 0.13379,0.0962 0.29004,0.16797 0.46973,0.21436 0.18066,0.0469 0.36719,0.0703 0.55957,0.0703 0.12988,0 0.26953,-0.0107 0.41895,-0.0327 0.14844,-0.0215 0.28809,-0.064 0.41895,-0.12598 0.12988,-0.062 0.23926,-0.14795 0.3252,-0.25684 0.0879,-0.10889 0.13086,-0.24707 0.13086,-0.41553 0,-0.18018 -0.0576,-0.32617 -0.17285,-0.43848 -0.11426,-0.1123 -0.26562,-0.20508 -0.45215,-0.28027 -0.18555,-0.0742 -0.39746,-0.13965 -0.63281,-0.1958 -0.23633,-0.0562 -0.47559,-0.11816 -0.71777,-0.18701 -0.24902,-0.062 -0.49121,-0.13818 -0.72754,-0.22852 -0.23535,-0.0898 -0.44727,-0.20703 -0.63379,-0.3501 -0.18652,-0.14307 -0.33691,-0.32178 -0.45215,-0.53662 -0.11426,-0.21484 -0.17188,-0.47461 -0.17188,-0.7793 0,-0.34277 0.0732,-0.63965 0.21875,-0.8916 0.14648,-0.25195 0.33789,-0.46191 0.57422,-0.63037 0.23535,-0.16797 0.50293,-0.29248 0.80176,-0.37354 0.29785,-0.0806 0.59668,-0.12109 0.89453,-0.12109 0.34863,0 0.68262,0.0391 1.00293,0.11719 0.31934,0.0776 0.60449,0.2041 0.85254,0.37842 0.24902,0.17432 0.44629,0.39697 0.59277,0.66797 0.14551,0.271 0.21875,0.59961 0.21875,0.98535 h -1.42188 c -0.0127,-0.19922 -0.0547,-0.36426 -0.125,-0.49463 -0.0713,-0.13086 -0.16602,-0.2334 -0.2832,-0.30859 -0.11816,-0.0742 -0.25293,-0.12744 -0.4043,-0.1582 -0.15234,-0.0312 -0.31738,-0.0469 -0.49707,-0.0469 -0.11719,0 -0.23535,0.0127 -0.35254,0.0371 -0.11816,0.0254 -0.22461,0.0688 -0.32031,0.13086 -0.0967,0.0625 -0.17578,0.14014 -0.2373,0.2334 -0.0615,0.0937 -0.0928,0.21191 -0.0928,0.35498 0,0.13086 0.0244,0.23682 0.0742,0.31738 0.0498,0.0811 0.14844,0.15576 0.29395,0.22412 0.14551,0.0684 0.34766,0.13721 0.60547,0.20557 0.25781,0.0684 0.59473,0.15576 1.01172,0.26123 0.12402,0.0249 0.2959,0.0703 0.5166,0.13574 0.2207,0.0654 0.43945,0.16943 0.65723,0.3125 0.21777,0.14355 0.40527,0.33496 0.56445,0.57422 0.1582,0.23975 0.2373,0.54639 0.2373,0.91992 0,0.30518 -0.0596,0.58838 -0.17773,0.84961 -0.11816,0.26172 -0.29395,0.4873 -0.52734,0.67676 -0.2334,0.19043 -0.52246,0.33789 -0.86719,0.44385 -0.3457,0.10596 -0.74609,0.15869 -1.19922,0.15869 -0.36719,0 -0.72363,-0.0454 -1.06934,-0.13574 -0.34473,-0.0903 -0.65039,-0.23242 -0.91504,-0.42578 -0.26367,-0.19336 -0.47363,-0.43994 -0.62988,-0.73877 -0.15527,-0.29932 -0.22949,-0.65381 -0.22363,-1.06494 h 1.42188 c -3e-5,0.22412 0.04,0.41406 0.12106,0.56933 z"
           id="path298"
           style="fill:#ffffff" />
        <path
           inkscape:connector-curvature="0"
           d="m 273.8667,107.8667 2.49316,6.66406 h -1.52246 l -0.50391,-1.48438 h -2.49316 l -0.52246,1.48438 h -1.47461 l 2.52051,-6.66406 z m 0.084,4.08594 -0.83984,-2.44336 h -0.0186 l -0.86914,2.44336 z"
           id="path300"
           style="fill:#ffffff" />
      </g>
      <g
         enable-background="new    "
         id="g302">
        <path
           inkscape:connector-curvature="0"
           d="m 239.17821,107.8667 c 0.31738,0 0.60742,0.0283 0.86914,0.084 0.26172,0.0561 0.48633,0.14795 0.67383,0.27539 0.18652,0.12744 0.33203,0.29688 0.43457,0.5083 0.10254,0.21142 0.1543,0.47266 0.1543,0.78369 0,0.33594 -0.0762,0.61523 -0.22949,0.83936 -0.15234,0.22412 -0.37891,0.40723 -0.67773,0.55029 0.41211,0.11816 0.71973,0.3252 0.92285,0.62109 0.20312,0.29589 0.30469,0.65234 0.30469,1.06934 0,0.33594 -0.0654,0.62695 -0.19629,0.87305 -0.13086,0.24561 -0.30762,0.44629 -0.52832,0.60205 -0.22168,0.15576 -0.47461,0.271 -0.75781,0.34521 -0.28418,0.0752 -0.5752,0.1123 -0.875,0.1123 h -3.23633 v -6.66406 h 3.14159 z m -0.1875,2.69531 c 0.26172,0 0.47656,-0.062 0.64551,-0.18604 0.16797,-0.12451 0.25195,-0.32568 0.25195,-0.60498 0,-0.15527 -0.0283,-0.28271 -0.084,-0.38184 -0.0566,-0.0996 -0.13086,-0.17676 -0.22461,-0.23291 -0.0937,-0.0557 -0.20117,-0.0947 -0.32227,-0.11621 -0.12207,-0.022 -0.24805,-0.0327 -0.37891,-0.0327 h -1.37305 v 1.55469 z m 0.0859,2.82813 c 0.14355,0 0.28027,-0.0137 0.41113,-0.042 0.13086,-0.0278 0.24707,-0.0747 0.34668,-0.13965 0.0996,-0.0654 0.17871,-0.1543 0.23828,-0.26611 0.0596,-0.11181 0.0889,-0.25488 0.0889,-0.4292 0,-0.3418 -0.0967,-0.58594 -0.29004,-0.73193 -0.19336,-0.14599 -0.44922,-0.21924 -0.7666,-0.21924 h -1.59961 v 1.82812 z"
           id="path304"
           style="fill:#ffffff" />
        <path
           inkscape:connector-curvature="0"
           d="m 241.88914,107.8667 h 1.64355 l 1.56055,2.63184 1.55078,-2.63184 h 1.63379 l -2.47363,4.10645 v 2.55762 h -1.46875 v -2.59473 z"
           id="path306"
           style="fill:#ffffff" />
      </g>
      <g
         id="g6316_1_"
         transform="matrix(0.624995,0,0,0.624995,391.2294,176.9332)">
        <path
           inkscape:connector-curvature="0"
           id="path6318_1_"
           cx="475.97119"
           ry="29.209877"
           cy="252.08646"
           type="arc"
           rx="29.209877"
           d="m -175.0083,-139.1153 c 0.006,9.4118 -7.61725,17.04779 -17.02982,17.05481 -9.41101,0.007 -17.047,-7.61725 -17.05481,-17.02979 0,-0.008 0,-0.0172 0,-0.025 -0.006,-9.41254 7.6188,-17.047 17.02982,-17.05481 9.41257,-0.007 17.04855,7.61804 17.05481,17.02985 0,0.009 0,0.0164 0,0.025 z"
           style="fill:#ffffff" />
        <g
           id="g6320_1_"
           transform="translate(-23.9521,-89.72962)">
          <path
             inkscape:connector-curvature="0"
             id="path6322_1_"
             d="m -168.2204,-68.05536 c -5.17194,0 -9.54852,1.80469 -13.13135,5.41333 -3.67661,3.73444 -5.51413,8.1532 -5.51413,13.25635 0,5.10315 1.83752,9.49152 5.51413,13.1626 3.67502,3.67194 8.05316,5.50787 13.13135,5.50787 5.14066,0 9.59537,-1.85156 13.36728,-5.55475 3.55005,-3.51562 5.3266,-7.88831 5.3266,-13.11572 0,-5.22662 -1.8078,-9.64697 -5.42191,-13.25635 -3.61407,-3.60864 -8.03756,-5.41333 -13.27197,-5.41333 z m 0.0469,3.36017 c 4.23752,0 7.836,1.49298 10.79697,4.48053 2.98907,2.9563 4.48441,6.56567 4.48441,10.82898 0,4.29382 -1.46252,7.85712 -4.39224,10.68915 -3.08438,3.04926 -6.71411,4.57349 -10.88913,4.57349 -4.17505,0 -7.7735,-1.5094 -10.79541,-4.52661 -3.02188,-3.01953 -4.53284,-6.59692 -4.53284,-10.73602 0,-4.13831 1.52658,-7.74847 4.57971,-10.82898 2.92815,-2.98756 6.51098,-4.48054 10.74853,-4.48054 z" />
          <path
             inkscape:connector-curvature="0"
             id="path6324_1_"
             d="m -176.49548,-52.02087 c 0.74377,-4.69769 4.05161,-7.20862 8.1954,-7.20862 5.96097,0 9.59225,4.32501 9.59225,10.09229 0,5.62738 -3.86411,9.99927 -9.686,9.99927 -4.00473,0 -7.58914,-2.46484 -8.24228,-7.30084 h 4.70319 c 0.14062,2.51099 1.77032,3.39459 4.09845,3.39459 2.65317,0 4.37817,-2.4649 4.37817,-6.23291 0,-3.95233 -1.49063,-6.04535 -4.28598,-6.04535 -2.04846,0 -3.8172,0.74457 -4.19064,3.30157 l 1.36874,-0.007 -3.70316,3.7016 -3.7016,-3.7016 z" />
        </g>
      </g>
      <g
         id="g313">
        <circle
           cx="242.56226"
           cy="90.224609"
           r="10.8064"
           id="circle315"
           style="fill:#ffffff" />
        <g
           id="g317">
          <path
             inkscape:connector-curvature="0"
             d="m 245.68994,87.09766 c 0,-0.4165 -0.33789,-0.75342 -0.75391,-0.75342 h -4.77246 c -0.41602,0 -0.75391,0.33691 -0.75391,0.75342 v 4.77295 h 1.33105 v 5.65234 h 3.61719 v -5.65234 h 1.33203 v -4.77295 z"
             id="path319" />
          <circle
             cx="242.5498"
             cy="84.083008"
             r="1.63232"
             id="circle321" />
        </g>
        <path
           inkscape:connector-curvature="0"
           d="m 242.53467,78.31836 c -3.23145,0 -5.96826,1.12744 -8.20752,3.38379 -2.29785,2.33301 -3.44629,5.09521 -3.44629,8.28418 0,3.18897 1.14844,5.93213 3.44629,8.22705 2.29785,2.29443 5.03418,3.44189 8.20752,3.44189 3.21289,0 5.99805,-1.15674 8.35352,-3.47168 2.2207,-2.19678 3.33008,-4.92969 3.33008,-8.19727 0,-3.26758 -1.12891,-6.02881 -3.3877,-8.28418 -2.25879,-2.25634 -5.02442,-3.38378 -8.2959,-3.38378 z m 0.0293,2.09961 c 2.64844,0 4.89746,0.93359 6.74707,2.80078 1.87012,1.84717 2.80469,4.10352 2.80469,6.76758 0,2.68359 -0.91504,4.91113 -2.74609,6.68066 -1.92773,1.90576 -4.19629,2.8584 -6.80566,2.8584 -2.60937,0 -4.8584,-0.94287 -6.74658,-2.82959 -1.88965,-1.88623 -2.8335,-4.12256 -2.8335,-6.70947 0,-2.58643 0.9541,-4.84229 2.8623,-6.76758 1.83057,-1.86719 4.07031,-2.80078 6.71777,-2.80078 z"
           id="path323"
           style="clip-rule:evenodd;fill-rule:evenodd" />
      </g>
    </g>
  </g>
  <g
     inkscape:groupmode="layer"
     id="layer6"
     inkscape:label="Licencia">
    <text
       xml:space="preserve"
       style="font-style:normal;font-weight:normal;font-size:5.953125px;line-height:60.00000238%;font-family:sans-serif;letter-spacing:0px;word-spacing:0px;fill:#000000;fill-opacity:1;stroke:none;stroke-width:0.26458332px;stroke-linecap:butt;stroke-linejoin:miter;stroke-opacity:1"
       x="7.5182767"
       y="287.06781"
       id="text1193"><tspan
         sodipodi:role="line"
         id="tspan1191"
         x="7.5182767"
         y="287.06781"
         style="font-size:2.82222223px;line-height:60.00000238%;stroke-width:0.26458332px">Esta obra está bajo una Licencia</tspan><tspan
         sodipodi:role="line"
         x="7.5182767"
         y="290.63968"
         style="font-size:2.82222223px;line-height:60.00000238%;stroke-width:0.26458332px"
         id="tspan1247">Creative Commons Atribución-CompartirIgual 4.0 Internacional.</tspan></text>
  </g>
  <g
     inkscape:groupmode="layer"
     id="layer3"
     inkscape:label="Textos"
     style="display:inline">
    <text
       xml:space="preserve"
       style="font-style:normal;font-weight:normal;font-size:5.953125px;line-height:125%;font-family:sans-serif;letter-spacing:0px;word-spacing:0px;fill:#000000;fill-opacity:1;stroke:none;stroke-width:0.26458332px;stroke-linecap:butt;stroke-linejoin:miter;stroke-opacity:1"
       x="22.71254"
       y="47.0439"
       id="text841"><tspan
         sodipodi:role="line"
         id="tspan839"
         x="22.71254"
         y="47.0439"
         style="font-size:4.93888903px;line-height:33.50000083%;stroke-width:0.26458332px">Enhorabuena por la adquisición de su Posaterm 3000. Desde</tspan><tspan
         sodipodi:role="line"
         x="22.71254"
         y="54.485306"
         style="font-size:4.93888903px;line-height:33.50000083%;stroke-width:0.26458332px"
         id="tspan843">Neoengineering creemos en el futuro seguro, por esto estamos</tspan><tspan
         sodipodi:role="line"
         x="22.71254"
         y="61.926712"
         style="font-size:4.93888903px;line-height:33.50000083%;stroke-width:0.26458332px"
         id="tspan845">realmente convencidos de que no se arrepentirá de su adquisición</tspan><tspan
         sodipodi:role="line"
         x="22.71254"
         y="69.368118"
         style="font-size:4.93888903px;line-height:33.50000083%;stroke-width:0.26458332px"
         id="tspan851">intertemporal. </tspan></text>
    <text
       xml:space="preserve"
       style="font-style:normal;font-weight:normal;font-size:5.953125px;line-height:125%;font-family:sans-serif;letter-spacing:0px;word-spacing:0px;display:inline;fill:#000000;fill-opacity:1;stroke:none;stroke-width:0.26458332px;stroke-linecap:butt;stroke-linejoin:miter;stroke-opacity:1"
       x="22.510693"
       y="101.46101"
       id="text841-6"><tspan
         sodipodi:role="line"
         x="22.510693"
         y="101.46101"
         style="font-size:4.93888903px;line-height:33.50000083%;stroke-width:0.26458332px"
         id="tspan928">Un posavasos capaz de detectar la temperatura de su bebida.</tspan><tspan
         sodipodi:role="line"
         x="22.510693"
         y="108.90242"
         style="font-size:4.93888903px;line-height:33.50000083%;stroke-width:0.26458332px"
         id="tspan932">Es bien sabido por todos que antes de salvar a la humanidad de</tspan><tspan
         sodipodi:role="line"
         x="22.510693"
         y="116.34383"
         style="font-size:4.93888903px;line-height:33.50000083%;stroke-width:0.26458332px"
         id="tspan934">los androides infiltrados hay que tomarse un café a la temperatura</tspan><tspan
         sodipodi:role="line"
         x="22.510693"
         y="123.78523"
         style="font-size:4.93888903px;line-height:33.50000083%;stroke-width:0.26458332px"
         id="tspan949">correcta.</tspan></text>
    <text
       xml:space="preserve"
       style="font-style:normal;font-weight:normal;font-size:5.953125px;line-height:125%;font-family:sans-serif;letter-spacing:0px;word-spacing:0px;display:inline;fill:#000000;fill-opacity:1;stroke:none;stroke-width:0.26458332px;stroke-linecap:butt;stroke-linejoin:miter;stroke-opacity:1"
       x="22.12484"
       y="155.535"
       id="text841-6-1"><tspan
         sodipodi:role="line"
         x="22.12484"
         y="155.535"
         style="font-size:4.93888903px;line-height:33.50000083%;stroke-width:0.26458332px"
         id="tspan1057">Coge el alimentador del replicante, conéctalo a un enchufe del</tspan><tspan
         sodipodi:role="line"
         x="22.12484"
         y="162.97641"
         style="font-size:4.93888903px;line-height:33.50000083%;stroke-width:0.26458332px"
         id="tspan1089">presente y a su nuevo Posaterm 3000. Ha de esperar un minuto</tspan><tspan
         sodipodi:role="line"
         x="22.12484"
         y="170.41782"
         style="font-size:4.93888903px;line-height:33.50000083%;stroke-width:0.26458332px"
         id="tspan1093">a que se produzca el autocalentamiento del dispositivo.   </tspan><tspan
         sodipodi:role="line"
         x="22.12484"
         y="177.85922"
         style="font-size:4.93888903px;line-height:33.50000083%;stroke-width:0.26458332px"
         id="tspan1053" /><tspan
         sodipodi:role="line"
         x="22.12484"
         y="185.30063"
         style="font-size:4.93888903px;line-height:33.50000083%;stroke-width:0.26458332px"
         id="tspan1047">Doce son los indicadores de nivel de</tspan><tspan
         sodipodi:role="line"
         x="22.12484"
         y="192.74203"
         style="font-size:4.93888903px;line-height:33.50000083%;stroke-width:0.26458332px"
         id="tspan1115">temperatura. Cada uno indica</tspan><tspan
         sodipodi:role="line"
         x="22.12484"
         y="200.18344"
         style="font-size:4.93888903px;line-height:33.50000083%;stroke-width:0.26458332px"
         id="tspan1069">5 grados Celsius y se</tspan><tspan
         sodipodi:role="line"
         x="22.12484"
         y="207.62485"
         style="font-size:4.93888903px;line-height:33.50000083%;stroke-width:0.26458332px"
         id="tspan1087">codifica por color.</tspan><tspan
         sodipodi:role="line"
         x="22.12484"
         y="215.06625"
         style="font-size:4.93888903px;line-height:33.50000083%;stroke-width:0.26458332px"
         id="tspan1077" /><tspan
         sodipodi:role="line"
         x="22.12484"
         y="222.50766"
         style="font-size:4.93888903px;line-height:33.50000083%;stroke-width:0.26458332px"
         id="tspan1071">Codificación por color:</tspan><tspan
         sodipodi:role="line"
         x="22.12484"
         y="229.94907"
         style="font-size:4.93888903px;line-height:33.50000083%;stroke-width:0.26458332px"
         id="tspan1073" /><tspan
         sodipodi:role="line"
         x="22.12484"
         y="237.39047"
         style="font-size:4.93888903px;line-height:33.50000083%;stroke-width:0.26458332px"
         id="tspan1075"><tspan
   style="font-style:normal;font-variant:normal;font-weight:bold;font-stretch:normal;font-family:sans-serif;-inkscape-font-specification:'sans-serif Bold'"
   id="tspan1174">- Azules:</tspan> 0 a 20 C.</tspan><tspan
         sodipodi:role="line"
         x="22.12484"
         y="244.83188"
         style="font-size:4.93888903px;line-height:33.50000083%;stroke-width:0.26458332px"
         id="tspan1081">-<tspan
   style="font-style:normal;font-variant:normal;font-weight:bold;font-stretch:normal;font-family:sans-serif;-inkscape-font-specification:'sans-serif Bold'"
   id="tspan1180"> Verdes:</tspan> 20 a 50 C.</tspan><tspan
         sodipodi:role="line"
         x="22.12484"
         y="252.27328"
         style="font-size:4.93888903px;line-height:33.50000083%;stroke-width:0.26458332px"
         id="tspan1083"><tspan
   style="font-style:normal;font-variant:normal;font-weight:bold;font-stretch:normal;font-family:sans-serif;-inkscape-font-specification:'sans-serif Bold'"
   id="tspan1186">- Amarillos:</tspan> 50 a 60 C.</tspan><tspan
         sodipodi:role="line"
         x="22.12484"
         y="259.71469"
         style="font-size:4.93888903px;line-height:33.50000083%;stroke-width:0.26458332px"
         id="tspan1049" /><tspan
         sodipodi:role="line"
         x="22.12484"
         y="267.1561"
         style="font-size:4.93888903px;line-height:33.50000083%;stroke-width:0.26458332px"
         id="tspan1051" /></text>
    <text
       xml:space="preserve"
       style="font-style:normal;font-weight:normal;font-size:5.953125px;line-height:125%;font-family:sans-serif;letter-spacing:0px;word-spacing:0px;fill:#000000;fill-opacity:1;stroke:none;stroke-width:0.26458332px;stroke-linecap:butt;stroke-linejoin:miter;stroke-opacity:1"
       x="122.67671"
       y="290.60699"
       id="text1160"><tspan
         sodipodi:role="line"
         id="tspan1158"
         x="122.67671"
         y="290.60699"
         style="font-size:2.82222223px;stroke-width:0.26458332px">Para replicar este proyecto visita http://bit.ly/posaterm3000</tspan></text>
  </g>
  <g
     inkscape:groupmode="layer"
     id="layer5"
     inkscape:label="Señal"
     style="display:inline">
    <path
       inkscape:connector-curvature="0"
       style="display:inline;fill:#fdee1c;stroke-width:0.99044293"
       d="m 132.37471,178.11205 c -1.48962,0.22984 -2.799,1.11029 -3.54776,2.41468 l -41.704775,72.25183 c -0.872597,1.51836 -0.886484,3.41009 0,4.93834 0.886454,1.52828 2.534565,2.49 4.315386,2.48802 h 83.409389 c 1.78377,0.002 3.43188,-0.95775 4.31735,-2.48802 0.88644,-1.52825 0.87255,-3.41998 0,-4.93834 l -41.70459,-72.25183 c -1.02514,-1.78575 -3.05655,-2.73164 -5.085,-2.41468 z"
       id="path2-3" />
    <path
       inkscape:connector-curvature="0"
       style="display:inline;fill:#010101;stroke-width:0.99044293"
       d="m 132.75803,180.15138 c -0.80423,0.12578 -1.49159,0.61107 -1.87987,1.28856 l -41.995974,72.74704 c -0.46055,0.80127 -0.46253,1.83034 0,2.62469 0.468497,0.8082 1.335131,1.33905 2.277055,1.33707 h 83.989769 c 0.9439,0.002 1.80855,-0.5279 2.27902,-1.33707 0.46055,-0.79533 0.45857,-1.82443 0,-2.62469 l -41.9958,-72.74805 c -0.53977,-0.93795 -1.58175,-1.45791 -2.6742,-1.28755 z m 0.39618,8.37022 35.65598,62.79407 H 97.449555 Z"
       id="path4-6" />
    <path
       inkscape:connector-curvature="0"
       style="display:inline;fill:none;stroke:#010101;stroke-width:0.66082358;stroke-linecap:round;stroke-linejoin:round;stroke-miterlimit:10"
       d="m 129.3806,206.07324 v 32.28845 c -1.4609,1.1301 -2.42757,2.86831 -2.42757,4.85318 0,3.40511 2.7871,6.19024 6.19029,6.19024 3.40318,0 6.19031,-2.78513 6.19031,-6.19024 0,-2.07598 -1.0509,-3.88454 -2.62272,-5.00078 v -32.14085 c -1.14298,-4.25394 -6.16655,-4.34509 -7.33031,0 z"
       stroke-miterlimit="10"
       id="path6-0" />
    <path
       inkscape:connector-curvature="0"
       style="display:inline;fill:#010101;stroke-width:0.99044293"
       d="m 130.27199,213.1044 v 25.65248 c -1.46289,0.94386 -2.42758,2.58999 -2.42758,4.45698 0,2.92479 2.37311,5.29886 5.29891,5.29886 2.92578,0 5.29989,-2.37309 5.29989,-5.29886 0,-1.88777 -0.98848,-3.56758 -2.47612,-4.50553 V 213.1044 Z"
       id="path8-6" />
  </g>
  <g
     inkscape:groupmode="layer"
     id="layer4"
     inkscape:label="Auxiliares"
     style="display:inline">
    <path
       style="fill:none;fill-rule:evenodd;stroke:#000000;stroke-width:0.26458332px;stroke-linecap:butt;stroke-linejoin:miter;stroke-opacity:1"
       d="M 17.10525,36.620387 H 186.01959"
       id="path862"
       inkscape:connector-curvature="0" />
    <path
       style="fill:none;fill-rule:evenodd;stroke:#000000;stroke-width:0.26458332px;stroke-linecap:butt;stroke-linejoin:miter;stroke-opacity:1"
       d="M 17.105247,76.837079 H 186.01959"
       id="path862-3"
       inkscape:connector-curvature="0" />
    <path
       style="display:inline;fill:none;fill-rule:evenodd;stroke:#000000;stroke-width:0.26458332px;stroke-linecap:butt;stroke-linejoin:miter;stroke-opacity:1"
       d="M 17.853339,130.39726 H 186.76771"
       id="path862-3-6"
       inkscape:connector-curvature="0" />
  </g>
</svg>
